<svg xmlns="http://www.w3.org/2000/svg" width="17" height="17" viewBox="0 0 17 17">
  <g id="close10" transform="translate(-16.5 -53.5)">
    <path id="路径_2397" data-name="路径 2397" d="M15,16a1,1,0,0,1-.707-.293l-15-15a1,1,0,0,1,0-1.414,1,1,0,0,1,1.414,0l15,15A1,1,0,0,1,15,16Z" transform="translate(17.5 54.5)" fill="#fff"/>
    <path id="路径_2396" data-name="路径 2396" d="M0,16a1,1,0,0,1-.707-.293,1,1,0,0,1,0-1.414l15-15a1,1,0,0,1,1.414,0,1,1,0,0,1,0,1.414l-15,15A1,1,0,0,1,0,16Z" transform="translate(17.5 54.5)" fill="#fff"/>
  </g>
</svg>
